<svg xmlns="http://www.w3.org/2000/svg" viewBox="0 0 196.5 182"><g fill="#3DA6C6"><path d="M113.2 76.5c-1.5 0-3 .6-4.2 1.7l-26.6 26.6-11.2-11.3c-1.1-1.1-2.5-1.7-4.1-1.7s-3 .6-4.1 1.7c-1.1 1.1-1.7 2.6-1.7 4.1 0 1.6.6 3 1.7 4.1l15.5 15.4c1.1 1.1 2.6 1.7 4.1 1.7 1.5 0 3-.6 4.1-1.7l30.7-30.7c2.3-2.3 2.3-6-.1-8.3-1.1-1-2.6-1.6-4.1-1.6z"/><path d="M181.8 89c-1.1-49.2-41.4-89-90.9-89C40.7 0 0 40.8 0 91s40.5 91 91.2 91v-30.4c-33.5 0-60.8-27.2-60.8-60.6 0-33.4 27-60.6 60.4-60.6 32.7 0 59.5 26.1 60.5 58.6h-15l30.1 42.3L196.5 89h-14.7z"/></g></svg>