<svg xmlns="http://www.w3.org/2000/svg" viewBox="0 0 196.5 182"><g fill="#3DA6C6"><path d="M181.8 89c-1.1-49.3-41.4-89-90.9-89C40.7 0 0 40.8 0 91s40.5 91 91.2 91v-30.4c-33.5 0-60.8-27.2-60.8-60.6 0-33.4 27-60.6 60.4-60.6 32.7 0 59.5 26.1 60.5 58.6h-15l30.1 42.3L196.5 89h-14.7z"/><path d="M98.7 97.7L109 87.3c2.5-2.5 2.7-6.4.4-8.7-1-1-2.5-1.6-4-1.6-1.7 0-3.4.7-4.7 2L90.4 89.3 80 79c-1.3-1.3-3-2-4.7-2-1.5 0-3 .6-4 1.6-1.1 1.1-1.7 2.7-1.6 4.4.1 1.6.8 3.1 2 4.3L82 97.6 71.7 108c-1.2 1.2-1.9 2.7-2 4.3-.1 1.7.5 3.3 1.6 4.4 1 1 2.5 1.6 4 1.6 1.7 0 3.4-.7 4.7-2L90.4 106l10.3 10.3c1.3 1.3 3 2 4.7 2 1.5 0 3-.6 4-1.6 2.3-2.3 2.1-6.2-.4-8.7L98.7 97.7z"/></g></svg>