<?xml version="1.0" encoding="utf-8"?>
<!-- Generator: Adobe Illustrator 18.1.1, SVG Export Plug-In . SVG Version: 6.00 Build 0)  -->
<svg version="1.1" xmlns="http://www.w3.org/2000/svg"  x="0px" y="0px"
	 viewBox="0 0 221.3 182.5" enable-background="new 0 0 221.3 182.5" xml:space="preserve">
<pattern  x="-6079.8" y="-514.6" width="75" height="69" patternUnits="userSpaceOnUse" id="New_Pattern_Swatch_3" viewBox="0 -69 75 69" overflow="visible">
	<g>
		<polygon fill="none" points="0,0 75,0 75,-69 0,-69 		"/>
		<polygon fill="#333333" points="75,0 0,0 0,-69 75,-69 		"/>
	</g>
</pattern>
<pattern  x="-6079.8" y="-514.6" width="75" height="69" patternUnits="userSpaceOnUse" id="New_Pattern_Swatch_7" viewBox="0 -69 75 69" overflow="visible">
	<g>
		<polygon fill="none" points="0,0 75,0 75,-69 0,-69 		"/>
		<polygon fill="#2D6378" points="75,0 0,0 0,-69 75,-69 		"/>
	</g>
</pattern>
<g id="frame">
</g>
<g id="Content">
</g>
<g id="Layer_4">
</g>
<g id="grid" display="none">
</g>
<g id="specctr_x2F_Annotations">
	<g id="Spacing">
	</g>
	<g id="Dimensions">
	</g>
</g>
<g id="specctr">
	<g id="Dimensions_1_">
	</g>
	<g id="Spacing_1_">
	</g>
	<g>
		<path fill="#FFFFFF" d="M126.2,117.1c-8.8-3.2-11.7-5.9-11.7-11.7c0-3.5,2.7-2.3,3.9-8.7c0.5-2.6,2.9,0,3.3-6.1c0-2.4-1.3-3-1.3-3
			s0.7-3.6,0.9-6.3c0.3-3.4-2-12.3-14.2-12.3c-12.3,0-14.5,8.8-14.2,12.3c0.3,2.7,0.9,6.3,0.9,6.3s-1.3,0.6-1.3,3
			c0.5,6,2.8,3.4,3.3,6.1c1.2,6.4,3.9,5.3,3.9,8.7c0,5.8-2.8,8.5-11.6,11.7c-8.9,3.2-14.6,6.5-14.6,8.8c0,2.2,0,7.5,0,7.5h33.7h33.7
			c0,0,0-5.3,0-7.5C140.8,123.7,135.1,120.4,126.2,117.1z"/>
	</g>
</g>
</svg>
