<?xml version="1.0" encoding="utf-8"?>
<!-- Generator: Adobe Illustrator 18.1.1, SVG Export Plug-In . SVG Version: 6.00 Build 0)  -->
<svg version="1.1" xmlns="http://www.w3.org/2000/svg"  x="0px" y="0px"
	 viewBox="0 0 221.3 182.5" enable-background="new 0 0 221.3 182.5" xml:space="preserve">
<pattern  x="-6079.7" y="0" width="75" height="69" patternUnits="userSpaceOnUse" id="New_Pattern_Swatch_3" viewBox="0 -69 75 69" overflow="visible">
	<g>
		<polygon fill="none" points="0,0 75,0 75,-69 0,-69 		"/>
		<polygon fill="#333333" points="75,0 0,0 0,-69 75,-69 		"/>
	</g>
</pattern>
<pattern  x="-6079.7" y="0" width="75" height="69" patternUnits="userSpaceOnUse" id="New_Pattern_Swatch_7" viewBox="0 -69 75 69" overflow="visible">
	<g>
		<polygon fill="none" points="0,0 75,0 75,-69 0,-69 		"/>
		<polygon fill="#2D6378" points="75,0 0,0 0,-69 75,-69 		"/>
	</g>
</pattern>
<g id="frame">
</g>
<g id="Content">
	<g>
		<g>
			<path fill="#FFFFFF" d="M148.5,118.9l-20.1-20.1c3.1-4.2,5-9.4,5-15.1c0-14-11.3-25.3-25.3-25.3S82.7,69.7,82.7,83.6
				S94,109,108,109c5.6,0,10.8-1.9,15-5l20.2,20.2L148.5,118.9z M108,103.7c-11,0-20-9-20-20s9-20,20-20s20,9,20,20
				S119,103.7,108,103.7z"/>
		</g>
	</g>
</g>
<g id="Layer_4">
</g>
<g id="grid" display="none">
</g>
<g id="specctr_x2F_Annotations">
	<g id="Spacing">
	</g>
	<g id="Dimensions">
	</g>
</g>
<g id="specctr">
	<g id="Dimensions_1_">
	</g>
	<g id="Spacing_1_">
	</g>
</g>
</svg>
