<?xml version="1.0" encoding="utf-8"?>
<!-- Generator: Adobe Illustrator 18.1.1, SVG Export Plug-In . SVG Version: 6.00 Build 0)  -->
<svg version="1.1" xmlns="http://www.w3.org/2000/svg"  x="0px" y="0px"
	 viewBox="0 0 196.5 182" enable-background="new 0 0 196.5 182" xml:space="preserve">
<pattern  x="1793.4" y="2275.1" width="75" height="69" patternUnits="userSpaceOnUse" id="New_Pattern_Swatch_3" viewBox="0 -69 75 69" overflow="visible">
	<g>
		<polygon fill="none" points="0,0 75,0 75,-69 0,-69 		"/>
		<polygon fill="#333333" points="75,0 0,0 0,-69 75,-69 		"/>
	</g>
</pattern>
<pattern  x="1793.4" y="2275.1" width="75" height="69" patternUnits="userSpaceOnUse" id="New_Pattern_Swatch_7" viewBox="0 -69 75 69" overflow="visible">
	<g>
		<polygon fill="none" points="0,0 75,0 75,-69 0,-69 		"/>
		<polygon fill="#2E6378" points="75,0 0,0 0,-69 75,-69 		"/>
	</g>
</pattern>
<g id="frame">
	<g id="ACA-B_Header">
	</g>
</g>
<g id="Content">
	<g id="Text_Properties">
	</g>
	<g id="LaborWise_Header">
	</g>
	<g id="DataTable_1_">
	</g>
	<g id="DataTable">
	</g>
	<g id="DataTable_2_">
	</g>
	<g id="DataTable_3_">
	</g>
	<g id="DataTable_4_">
	</g>
	<g id="DataTable_5_">
	</g>
	<path fill="#3DA6C6" d="M90.9,0C40.7,0,0,40.8,0,91c0,50.2,40.5,91,91.2,91v-30.4c-33.5,0-60.8-27.2-60.8-60.6
		c0-33.4,27-60.6,60.4-60.6c32.7,0,59.5,26.1,60.5,58.6h-15l30.1,42.3L196.5,89h-14.7C180.7,39.7,140.4,0,90.9,0z"/>
</g>
<g id="GRIDS" display="none">
</g>
<g id="TOUCHpoints">
</g>
<g id="specctr">
	<g id="Dimensions">
	</g>
	<g id="Object_Properties">
	</g>
	<g id="Spacing">
	</g>
	<g id="Text_Properties_1_" display="none">
	</g>
</g>
</svg>
